<svg xmlns="http://www.w3.org/2000/svg" viewBox="0 0 48 48" x="0px" y="0px">
  <linearGradient data-v-fde0c5aa="" gradientTransform="rotate(25)" id="0aaaa397-99aa-48fd-b2e2-9f314420f9ed" x1="0%" y1="0%" x2="100%" y2="0%">
    <stop data-v-fde0c5aa="" offset="0%" stop-color="#0076DD" stop-opacity="1"></stop>
    <stop data-v-fde0c5aa="" offset="100%" stop-color="#E600E9" stop-opacity="1"></stop>
  </linearGradient>
  <g stroke="none" fill="url(#0aaaa397-99aa-48fd-b2e2-9f314420f9ed)" id="2676561b-3dd4-48a3-84d0-758ffed3bf42">
    <path d="M24,0A24,24,0,1,0,48,24,24,24,0,0,0,24,0ZM45.91,26H34.44a2,2,0,0,1-2-2,2,2,0,0,1,2-2h4.5a3.5,3.5,0,0,0,0-7h-9.5a2,2,0,0,1-2-2,2,2,0,0,1,2-2H41.73A21.87,21.87,0,0,1,46,24C46,24.67,46,25.34,45.91,26ZM29,40h1a1,1,0,0,1,0,2H25V31H36.34a1.77,1.77,0,0,1,1.26.54,1.42,1.42,0,0,1,.4,1.05,1.48,1.48,0,0,1-.44,1A1.5,1.5,0,0,1,36.5,34H29a3,3,0,0,0,0,6Zm-6-8.46a7.61,7.61,0,0,1,0-15.08Zm0-17.1a9.61,9.61,0,0,0,0,19.12v5.5A15.09,15.09,0,0,1,23,8.94ZM2,24A22,22,0,0,1,23,2V6.94a17.09,17.09,0,0,0,0,34.12V46A22,22,0,0,1,2,24ZM25,46V44h5a3,3,0,0,0,0-6H29a1,1,0,0,1,0-2h7.5A3.48,3.48,0,0,0,39,35a3.52,3.52,0,0,0,1-2.27,3.36,3.36,0,0,0-.94-2.54A3.75,3.75,0,0,0,36.34,29H25V2A21.86,21.86,0,0,1,40.07,9H29.44a4,4,0,1,0,0,8h9.5a1.5,1.5,0,0,1,0,3h-4.5a4,4,0,1,0,0,8H45.63A22,22,0,0,1,25,46Z"/>
  </g>
</svg>
