 <svg width="1000" height="1000" viewBox="0 0 1000 1000" xmlns="http://www.w3.org/2000/svg"><defs/><path fill="#ffffff" d="M 0 0 L 1000 0 L 1000 1000 L 0 1000 Z"/><path transform="matrix(0.35438939343604325 0 0 0.35438939343604325 3.7445415180709487 12.409741048983907)" d="M 656.19705355424 1620.21019215615 L 641.59705355424 1620.21019215615 C 586.19705355424 1620.21019215615 541.19705355424 1575.11019215615 541.19705355424 1519.81019215615 L 541.19705355424 1474.61019215615 L 581.39705355424 1474.61019215615 L 581.39705355424 1519.81019215615 C 581.39705355424 1553.01019215615 608.39705355424 1580.11019215615 641.69705355424 1580.11019215615 L 656.29705355424 1580.11019215615 C 689.49705355424 1580.11019215615 716.59705355424 1553.11019215615 716.59705355424 1519.81019215615 L 716.59705355424 1386.51019215615 C 716.59705355424 1381.11019215615 718.79705355424 1375.91019215615 722.59705355424 1372.11019215615 C 726.49705355424 1368.31019215615 731.69705355424 1366.31019215615 737.09705355424 1366.41019215615 L 818.69705355424 1368.21019215615 L 817.79705355424 1408.41019215615 L 756.79705355424 1407.01019215615 L 756.79705355424 1519.81019215615 C 756.59705355424 1575.21019215615 711.49705355424 1620.21019215615 656.19705355424 1620.21019215615 Z"/><path fill="#777777" transform="matrix(0.35438939343604325 0 0 0.35438939343604325 3.7445415180709487 12.409741048983907)" d="M 664.69705355424 1536.71019215615 L 624.49705355424 1535.81019215615 L 625.89705355424 1474.81019215615 L 513.09705355424 1474.81019215615 C 457.69705355424 1474.81019215615 412.69705355424 1429.71019215615 412.69705355424 1374.41019215615 L 412.69705355424 1359.81019215615 C 412.69705355424 1304.41019215615 457.79705355424 1259.41019215615 513.09705355424 1259.41019215615 L 558.59705355424 1259.41019215615 L 558.59705355424 1299.61019215615 L 513.09705355424 1299.61019215615 C 479.89705355424 1299.61019215615 452.79705355424 1326.61019215615 452.79705355424 1359.91019215615 L 452.79705355424 1374.51019215615 C 452.79705355424 1407.71019215615 479.79705355424 1434.81019215615 513.09705355424 1434.81019215615 L 646.39705355424 1434.81019215615 C 651.79705355424 1434.81019215615 656.99705355424 1437.01019215615 660.79705355424 1440.81019215615 C 664.59705355424 1444.71019215615 666.59705355424 1449.91019215615 666.49705355424 1455.31019215615 L 664.69705355424 1536.71019215615 Z"/><path transform="matrix(0.35438939343604325 0 0 0.35438939343604325 3.7445415180709487 12.409741048983907)" d="M 578.79705355424 1385.31019215615 C 578.69705355424 1385.31019215615 578.49705355424 1385.31019215615 578.39705355424 1385.31019215615 L 496.79705355424 1383.51019215615 L 497.69705355424 1343.31019215615 L 558.69705355424 1344.71019215615 L 558.69705355424 1231.91019215615 C 558.69705355424 1176.51019215615 603.79705355424 1131.51019215615 659.09705355424 1131.51019215615 L 673.69705355424 1131.51019215615 C 729.09705355424 1131.51019215615 774.09705355424 1176.61019215615 774.09705355424 1231.91019215615 L 774.09705355424 1276.91019215615 L 733.89705355424 1276.91019215615 L 733.89705355424 1231.91019215615 C 733.89705355424 1198.71019215615 706.89705355424 1171.61019215615 673.59705355424 1171.61019215615 L 658.99705355424 1171.61019215615 C 625.79705355424 1171.61019215615 598.69705355424 1198.61019215615 598.69705355424 1231.91019215615 L 598.69705355424 1365.21019215615 C 598.69705355424 1370.61019215615 596.49705355424 1375.81019215615 592.69705355424 1379.61019215615 C 589.09705355424 1383.21019215615 584.09705355424 1385.31019215615 578.79705355424 1385.31019215615 Z"/><path fill="#777777" transform="matrix(0.35438939343604325 0 0 0.35438939343604325 3.7445415180709487 12.409741048983907)" d="M 802.19705355424 1492.41019215615 L 756.59705355424 1492.41019215615 L 756.59705355424 1452.21019215615 L 802.19705355424 1452.21019215615 C 835.39705355424 1452.21019215615 862.49705355424 1425.21019215615 862.49705355424 1391.91019215615 L 862.49705355424 1377.31019215615 C 862.49705355424 1344.11019215615 835.49705355424 1317.01019215615 802.19705355424 1317.01019215615 L 668.89705355424 1317.01019215615 C 663.49705355424 1317.01019215615 658.29705355424 1314.81019215615 654.49705355424 1311.01019215615 C 650.69705355424 1307.11019215615 648.69705355424 1301.91019215615 648.79705355424 1296.51019215615 L 650.59705355424 1214.91019215615 L 690.79705355424 1215.81019215615 L 689.39705355424 1276.81019215615 L 802.19705355424 1276.81019215615 C 857.59705355424 1276.81019215615 902.59705355424 1321.91019215615 902.59705355424 1377.21019215615 L 902.59705355424 1391.81019215615 C 902.69705355424 1447.31019215615 857.59705355424 1492.41019215615 802.19705355424 1492.41019215615 Z"/><path id="text" transform="matrix(1.1963285848543486 0 0 1.1963285848543486 213.21888315773109 92.32240189939354)" d="M 142.08744638621 372.50193390232 C 136.55144638621 369.52593390232 132.19944638621 365.39793390232 129.03144638621 360.11793390232 C 125.86344638621 354.83793390232 124.27944638621 348.86993390232 124.27944638621 342.21393390232 C 124.27944638621 335.55793390232 125.86344638621 329.58993390232 129.03144638621 324.30993390232 C 132.19944638621 319.02993390232 136.55144638621 314.90193390232 142.08744638621 311.92593390232 C 147.62344638621 308.94993390232 153.84744638621 307.46193390232 160.75944638621 307.46193390232 C 166.58344638621 307.46193390232 171.84744638621 308.48593390232 176.55144638621 310.53393390232 C 181.25544638621 312.58193390232 185.20744638621 315.52593390232 188.40744638621 319.36593390232 L 178.42344638621 328.58193390232 C 173.87944638621 323.33393390232 168.24744638621 320.70993390232 161.52744638621 320.70993390232 C 157.36744638621 320.70993390232 153.65544638621 321.62193390232 150.39144638621 323.44593390232 C 147.12744638621 325.26993390232 144.58344638621 327.81393390232 142.75944638621 331.07793390232 C 140.93544638621 334.34193390232 140.02344638621 338.05393390232 140.02344638621 342.21393390232 C 140.02344638621 346.37393390232 140.93544638621 350.08593390232 142.75944638621 353.34993390232 C 144.58344638621 356.61393390232 147.12744638621 359.15793390232 150.39144638621 360.98193390232 C 153.65544638621 362.80593390232 157.36744638621 363.71793390232 161.52744638621 363.71793390232 C 168.24744638621 363.71793390232 173.87944638621 361.06193390232 178.42344638621 355.74993390232 L 188.40744638621 364.96593390232 C 185.20744638621 368.86993390232 181.23944638621 371.84593390232 176.50344638621 373.89393390232 C 171.76744638621 375.94193390232 166.48744638621 376.96593390232 160.66344638621 376.96593390232 C 153.81544638621 376.96593390232 147.62344638621 375.47793390232 142.08744638621 372.50193390232 Z M 205.92744638621 373.17393390232 C 201.60744638621 370.90193390232 198.23144638621 367.74993390232 195.79944638621 363.71793390232 C 193.36744638621 359.68593390232 192.15144638621 355.10993390232 192.15144638621 349.98993390232 C 192.15144638621 344.86993390232 193.36744638621 340.29393390232 195.79944638621 336.26193390232 C 198.23144638621 332.22993390232 201.60744638621 329.07793390232 205.92744638621 326.80593390232 C 210.24744638621 324.53393390232 215.12744638621 323.39793390232 220.56744638621 323.39793390232 C 226.00744638621 323.39793390232 230.87144638621 324.53393390232 235.15944638621 326.80593390232 C 239.44744638621 329.07793390232 242.80744638621 332.22993390232 245.23944638621 336.26193390232 C 247.67144638621 340.29393390232 248.88744638621 344.86993390232 248.88744638621 349.98993390232 C 248.88744638621 355.10993390232 247.67144638621 359.68593390232 245.23944638621 363.71793390232 C 242.80744638621 367.74993390232 239.44744638621 370.90193390232 235.15944638621 373.17393390232 C 230.87144638621 375.44593390232 226.00744638621 376.58193390232 220.56744638621 376.58193390232 C 215.12744638621 376.58193390232 210.24744638621 375.44593390232 205.92744638621 373.17393390232 Z M 230.02344638621 360.40593390232 C 232.48744638621 357.81393390232 233.71944638621 354.34193390232 233.71944638621 349.98993390232 C 233.71944638621 345.63793390232 232.48744638621 342.16593390232 230.02344638621 339.57393390232 C 227.55944638621 336.98193390232 224.40744638621 335.68593390232 220.56744638621 335.68593390232 C 216.72744638621 335.68593390232 213.55944638621 336.98193390232 211.06344638621 339.57393390232 C 208.56744638621 342.16593390232 207.31944638621 345.63793390232 207.31944638621 349.98993390232 C 207.31944638621 354.34193390232 208.56744638621 357.81393390232 211.06344638621 360.40593390232 C 213.55944638621 362.99793390232 216.72744638621 364.29393390232 220.56744638621 364.29393390232 C 224.40744638621 364.29393390232 227.55944638621 362.99793390232 230.02344638621 360.40593390232 Z M 311.47944638621 304.58193390232 L 311.47944638621 375.81393390232 L 297.17544638621 375.81393390232 L 297.17544638621 369.86193390232 C 293.46344638621 374.34193390232 288.08744638621 376.58193390232 281.04744638621 376.58193390232 C 276.18344638621 376.58193390232 271.78344638621 375.49393390232 267.84744638621 373.31793390232 C 263.91144638621 371.14193390232 260.82344638621 368.03793390232 258.58344638621 364.00593390232 C 256.34344638621 359.97393390232 255.22344638621 355.30193390232 255.22344638621 349.98993390232 C 255.22344638621 344.67793390232 256.34344638621 340.00593390232 258.58344638621 335.97393390232 C 260.82344638621 331.94193390232 263.91144638621 328.83793390232 267.84744638621 326.66193390232 C 271.78344638621 324.48593390232 276.18344638621 323.39793390232 281.04744638621 323.39793390232 C 287.63944638621 323.39793390232 292.79144638621 325.47793390232 296.50344638621 329.63793390232 L 296.50344638621 304.58193390232 L 311.47944638621 304.58193390232 Z M 293.04744638621 360.40593390232 C 295.54344638621 357.81393390232 296.79144638621 354.34193390232 296.79144638621 349.98993390232 C 296.79144638621 345.63793390232 295.54344638621 342.16593390232 293.04744638621 339.57393390232 C 290.55144638621 336.98193390232 287.41544638621 335.68593390232 283.63944638621 335.68593390232 C 279.79944638621 335.68593390232 276.63144638621 336.98193390232 274.13544638621 339.57393390232 C 271.63944638621 342.16593390232 270.39144638621 345.63793390232 270.39144638621 349.98993390232 C 270.39144638621 354.34193390232 271.63944638621 357.81393390232 274.13544638621 360.40593390232 C 276.63144638621 362.99793390232 279.79944638621 364.29393390232 283.63944638621 364.29393390232 C 287.41544638621 364.29393390232 290.55144638621 362.99793390232 293.04744638621 360.40593390232 Z M 375.60744638621 354.21393390232 L 336.53544638621 354.21393390232 C 337.23944638621 357.41393390232 338.90344638621 359.94193390232 341.52744638621 361.79793390232 C 344.15144638621 363.65393390232 347.41544638621 364.58193390232 351.31944638621 364.58193390232 C 354.00744638621 364.58193390232 356.39144638621 364.18193390232 358.47144638621 363.38193390232 C 360.55144638621 362.58193390232 362.48744638621 361.31793390232 364.27944638621 359.58993390232 L 372.24744638621 368.22993390232 C 367.38344638621 373.79793390232 360.27944638621 376.58193390232 350.93544638621 376.58193390232 C 345.11144638621 376.58193390232 339.95944638621 375.44593390232 335.47944638621 373.17393390232 C 330.99944638621 370.90193390232 327.54344638621 367.74993390232 325.11144638621 363.71793390232 C 322.67944638621 359.68593390232 321.46344638621 355.10993390232 321.46344638621 349.98993390232 C 321.46344638621 344.93393390232 322.66344638621 340.37393390232 325.06344638621 336.30993390232 C 327.46344638621 332.24593390232 330.75944638621 329.07793390232 334.95144638621 326.80593390232 C 339.14344638621 324.53393390232 343.83144638621 323.39793390232 349.01544638621 323.39793390232 C 354.07144638621 323.39793390232 358.64744638621 324.48593390232 362.74344638621 326.66193390232 C 366.83944638621 328.83793390232 370.05544638621 331.95793390232 372.39144638621 336.02193390232 C 374.72744638621 340.08593390232 375.89544638621 344.80593390232 375.89544638621 350.18193390232 C 375.89544638621 350.37393390232 375.79944638621 351.71793390232 375.60744638621 354.21393390232 Z M 340.56744638621 337.60593390232 C 338.26344638621 339.52593390232 336.85544638621 342.14993390232 336.34344638621 345.47793390232 L 361.78344638621 345.47793390232 C 361.27144638621 342.21393390232 359.86344638621 339.60593390232 357.55944638621 337.65393390232 C 355.25544638621 335.70193390232 352.43944638621 334.72593390232 349.11144638621 334.72593390232 C 345.71944638621 334.72593390232 342.87144638621 335.68593390232 340.56744638621 337.60593390232 Z M 423.70344638621 329.10993390232 C 427.99144638621 332.91793390232 430.13544638621 338.66193390232 430.13544638621 346.34193390232 L 430.13544638621 375.81393390232 L 416.11944638621 375.81393390232 L 416.11944638621 369.38193390232 C 413.30344638621 374.18193390232 408.05544638621 376.58193390232 400.37544638621 376.58193390232 C 396.40744638621 376.58193390232 392.96744638621 375.90993390232 390.05544638621 374.56593390232 C 387.14344638621 373.22193390232 384.91944638621 371.36593390232 383.38344638621 368.99793390232 C 381.84744638621 366.62993390232 381.07944638621 363.94193390232 381.07944638621 360.93393390232 C 381.07944638621 356.13393390232 382.88744638621 352.35793390232 386.50344638621 349.60593390232 C 390.11944638621 346.85393390232 395.70344638621 345.47793390232 403.25544638621 345.47793390232 L 415.15944638621 345.47793390232 C 415.15944638621 342.21393390232 414.16744638621 339.70193390232 412.18344638621 337.94193390232 C 410.19944638621 336.18193390232 407.22344638621 335.30193390232 403.25544638621 335.30193390232 C 400.50344638621 335.30193390232 397.79944638621 335.73393390232 395.14344638621 336.59793390232 C 392.48744638621 337.46193390232 390.23144638621 338.62993390232 388.37544638621 340.10193390232 L 382.99944638621 329.63793390232 C 385.81544638621 327.65393390232 389.19144638621 326.11793390232 393.12744638621 325.02993390232 C 397.06344638621 323.94193390232 401.11144638621 323.39793390232 405.27144638621 323.39793390232 C 413.27144638621 323.39793390232 419.41544638621 325.30193390232 423.70344638621 329.10993390232 Z M 410.93544638621 364.72593390232 C 412.91944638621 363.54193390232 414.32744638621 361.79793390232 415.15944638621 359.49393390232 L 415.15944638621 354.21393390232 L 404.88744638621 354.21393390232 C 398.74344638621 354.21393390232 395.67144638621 356.22993390232 395.67144638621 360.26193390232 C 395.67144638621 362.18193390232 396.42344638621 363.70193390232 397.92744638621 364.82193390232 C 399.43144638621 365.94193390232 401.49544638621 366.50193390232 404.11944638621 366.50193390232 C 406.67944638621 366.50193390232 408.95144638621 365.90993390232 410.93544638621 364.72593390232 Z M 465.22344638621 325.31793390232 C 468.26344638621 324.03793390232 471.76744638621 323.39793390232 475.73544638621 323.39793390232 L 475.73544638621 337.22193390232 C 474.07144638621 337.09393390232 472.95144638621 337.02993390232 472.37544638621 337.02993390232 C 468.08744638621 337.02993390232 464.72744638621 338.22993390232 462.29544638621 340.62993390232 C 459.86344638621 343.02993390232 458.64744638621 346.62993390232 458.64744638621 351.42993390232 L 458.64744638621 375.81393390232 L 443.67144638621 375.81393390232 L 443.67144638621 324.16593390232 L 457.97544638621 324.16593390232 L 457.97544638621 330.98193390232 C 459.76744638621 328.48593390232 462.18344638621 326.59793390232 465.22344638621 325.31793390232 Z M 494.31144638621 373.17393390232 C 489.92744638621 370.90193390232 486.50344638621 367.74993390232 484.03944638621 363.71793390232 C 481.57544638621 359.68593390232 480.34344638621 355.10993390232 480.34344638621 349.98993390232 C 480.34344638621 344.86993390232 481.57544638621 340.29393390232 484.03944638621 336.26193390232 C 486.50344638621 332.22993390232 489.92744638621 329.07793390232 494.31144638621 326.80593390232 C 498.69544638621 324.53393390232 503.63944638621 323.39793390232 509.14344638621 323.39793390232 C 514.58344638621 323.39793390232 519.33544638621 324.53393390232 523.39944638621 326.80593390232 C 527.46344638621 329.07793390232 530.42344638621 332.32593390232 532.27944638621 336.54993390232 L 520.66344638621 342.78993390232 C 517.97544638621 338.05393390232 514.10344638621 335.68593390232 509.04744638621 335.68593390232 C 505.14344638621 335.68593390232 501.91144638621 336.96593390232 499.35144638621 339.52593390232 C 496.79144638621 342.08593390232 495.51144638621 345.57393390232 495.51144638621 349.98993390232 C 495.51144638621 354.40593390232 496.79144638621 357.89393390232 499.35144638621 360.45393390232 C 501.91144638621 363.01393390232 505.14344638621 364.29393390232 509.04744638621 364.29393390232 C 514.16744638621 364.29393390232 518.03944638621 361.92593390232 520.66344638621 357.18993390232 L 532.27944638621 363.52593390232 C 530.42344638621 367.62193390232 527.46344638621 370.82193390232 523.39944638621 373.12593390232 C 519.33544638621 375.42993390232 514.58344638621 376.58193390232 509.14344638621 376.58193390232 C 503.63944638621 376.58193390232 498.69544638621 375.44593390232 494.31144638621 373.17393390232 Z"/></svg>
