<svg data-v-423bf9ae="" xmlns="http://www.w3.org/2000/svg" viewBox="0 0 444 90" class="iconLeft"><!----><!----><!----><g data-v-423bf9ae="" id="ffb31282-3e54-48c6-8233-866580c1cfcc" fill="#022239" transform="matrix(5.92300092025334,0,0,5.92300092025334,106.63234781319241,-6.204343319455006)"><path d="M8.65 7.07L8.65 7.07Q8.46 6.55 8.04 6.19Q7.62 5.82 7.08 5.62Q6.54 5.42 5.94 5.37Q5.33 5.32 4.80 5.43L4.80 5.43Q4.23 5.56 3.77 5.86Q3.32 6.16 3.00 6.59Q2.69 7.01 2.52 7.53Q2.35 8.05 2.35 8.61L2.35 8.61Q2.35 9.66 2.80 10.40Q3.25 11.13 3.93 11.52Q4.62 11.91 5.43 11.94Q6.24 11.97 6.97 11.63L6.97 11.63Q7.60 11.35 8.39 10.54L8.39 10.54L9.59 11.84Q9.11 12.33 8.67 12.68Q8.22 13.03 7.74 13.26Q7.25 13.48 6.71 13.59Q6.17 13.71 5.54 13.71L5.54 13.71Q4.41 13.71 3.54 13.34Q2.67 12.98 2.06 12.37Q1.44 11.76 1.08 10.97Q0.73 10.18 0.62 9.32Q0.50 8.47 0.66 7.62Q0.81 6.78 1.22 6.05L1.22 6.05Q1.61 5.36 2.11 4.89Q2.60 4.42 3.19 4.14Q3.77 3.85 4.42 3.72Q5.07 3.60 5.77 3.58L5.77 3.58Q6.26 3.58 6.80 3.68Q7.34 3.77 7.82 3.96Q8.30 4.14 8.68 4.44Q9.06 4.73 9.21 5.12Q9.37 5.52 9.25 6.00Q9.14 6.48 8.65 7.07ZM14.36 6.10L14.36 6.10Q15.47 6.10 16.33 6.64Q17.19 7.17 17.68 7.99Q18.17 8.82 18.21 9.83Q18.24 10.84 17.70 11.80L17.70 11.80Q17.23 12.60 16.49 13.08Q15.75 13.55 14.91 13.67Q14.07 13.79 13.22 13.53Q12.38 13.27 11.70 12.60L11.70 12.60Q10.95 11.83 10.70 10.82Q10.44 9.81 10.74 8.81L10.74 8.81Q10.86 8.40 11.15 8.13Q11.44 7.87 11.80 7.74Q12.17 7.62 12.56 7.63Q12.95 7.64 13.29 7.79Q13.62 7.94 13.85 8.21Q14.08 8.48 14.13 8.88L14.13 8.88Q13.92 8.72 13.62 8.71Q13.33 8.71 13.05 8.84Q12.78 8.97 12.59 9.25Q12.40 9.52 12.40 9.93L12.40 9.93Q12.40 10.63 12.70 11.09Q12.99 11.55 13.43 11.78Q13.87 12.01 14.39 12.01Q14.90 12.01 15.34 11.77Q15.78 11.54 16.07 11.07Q16.37 10.60 16.37 9.90L16.37 9.90Q16.37 9.35 16.17 8.93Q15.97 8.51 15.64 8.24Q15.32 7.97 14.88 7.86Q14.45 7.76 13.96 7.85L13.96 7.85Q13.75 7.60 13.45 7.46Q13.15 7.31 12.80 7.26Q12.45 7.21 12.10 7.27Q11.75 7.34 11.44 7.52L11.44 7.52Q12.00 6.85 12.74 6.48Q13.48 6.10 14.36 6.10ZM24.58 13.51L24.58 12.74Q24.07 13.24 23.46 13.48Q22.85 13.71 22.23 13.69Q21.62 13.66 21.04 13.41Q20.47 13.15 20.03 12.66Q19.59 12.18 19.32 11.51Q19.05 10.84 19.05 9.98L19.05 9.98Q19.05 9.16 19.34 8.47Q19.63 7.78 20.11 7.29Q20.59 6.79 21.21 6.52Q21.83 6.26 22.50 6.29L22.50 6.29Q23.20 6.31 23.60 6.58Q24.00 6.85 24.17 7.20Q24.35 7.55 24.34 7.90Q24.33 8.26 24.21 8.48L24.21 8.48Q23.97 8.15 23.54 8.03Q23.11 7.91 22.74 7.91L22.74 7.91Q22.11 7.91 21.68 8.22Q21.25 8.53 21.04 8.99Q20.82 9.45 20.82 9.99Q20.82 10.53 21.03 10.99Q21.24 11.45 21.66 11.76Q22.08 12.07 22.72 12.07L22.72 12.07Q23.27 12.07 23.63 11.82Q23.98 11.58 24.19 11.19Q24.40 10.79 24.49 10.31Q24.58 9.83 24.58 9.35L24.58 9.35L24.58 3.74Q25.41 3.77 25.88 4.19Q26.35 4.61 26.35 5.17L26.35 5.17L26.35 13.51L24.58 13.51ZM32.69 10.72L32.69 10.72Q31.93 10.92 31.31 10.86Q30.69 10.81 30.29 10.56Q29.89 10.32 29.76 9.91Q29.62 9.49 29.83 8.97L29.83 8.97Q30.27 9.34 30.84 9.37Q31.42 9.41 31.95 9.35L31.95 9.35Q32.40 9.31 32.63 9.16Q32.86 9.00 32.91 8.80Q32.97 8.60 32.87 8.37Q32.77 8.15 32.56 7.97Q32.34 7.78 32.03 7.67Q31.71 7.56 31.33 7.57L31.33 7.57Q30.93 7.60 30.56 7.77Q30.20 7.94 29.92 8.23Q29.64 8.53 29.47 8.92Q29.30 9.31 29.29 9.79L29.29 9.79Q29.27 10.18 29.38 10.56Q29.48 10.93 29.69 11.25Q29.90 11.56 30.20 11.78Q30.49 12.00 30.87 12.05L30.87 12.05Q31.40 12.15 31.96 11.98Q32.52 11.82 32.96 11.37L32.96 11.37L34.43 12.08Q33.85 12.94 33.07 13.31Q32.28 13.68 31.28 13.68L31.28 13.68Q30.34 13.68 29.63 13.35Q28.92 13.02 28.46 12.47Q27.99 11.93 27.76 11.24Q27.52 10.54 27.54 9.82Q27.55 9.10 27.82 8.41Q28.08 7.71 28.59 7.18L28.59 7.18Q29.15 6.58 29.90 6.33Q30.65 6.08 31.43 6.08L31.43 6.08Q32.30 6.08 32.93 6.37Q33.56 6.66 33.95 7.12Q34.34 7.57 34.47 8.13Q34.59 8.68 34.45 9.20Q34.30 9.72 33.87 10.13Q33.43 10.54 32.69 10.72ZM41.13 13.52L41.13 12.73Q40.60 13.24 39.98 13.48Q39.35 13.72 38.72 13.70Q38.09 13.68 37.50 13.41Q36.90 13.15 36.45 12.65Q35.99 12.15 35.72 11.46Q35.45 10.77 35.45 9.88L35.45 9.88Q35.45 9.04 35.74 8.33Q36.04 7.62 36.53 7.11Q37.03 6.61 37.67 6.34Q38.30 6.06 38.99 6.09L38.99 6.09Q39.66 6.12 40.07 6.39Q40.47 6.66 40.66 7.03Q40.85 7.39 40.86 7.76Q40.87 8.13 40.74 8.36L40.74 8.36Q40.50 8.01 40.07 7.89Q39.63 7.77 39.23 7.77L39.23 7.77Q38.58 7.77 38.15 8.09Q37.72 8.40 37.49 8.88Q37.27 9.35 37.26 9.91Q37.25 10.46 37.47 10.93Q37.69 11.41 38.13 11.73Q38.57 12.04 39.23 12.04L39.23 12.04Q39.79 12.04 40.15 11.79Q40.52 11.54 40.73 11.14Q40.95 10.74 41.04 10.24Q41.13 9.74 41.13 9.25L41.13 9.25L41.13 7.04L41.13 6.27L42.95 6.27L42.95 13.52L41.13 13.52ZM44.35 13.52L44.35 6.24L45.92 6.24L45.92 7.17Q46.16 6.68 46.53 6.39Q46.90 6.10 47.35 6.08L47.35 6.08Q47.94 6.03 48.30 6.29Q48.66 6.55 48.81 6.92Q48.96 7.29 48.89 7.68Q48.82 8.06 48.51 8.29L48.51 8.29Q48.38 7.94 48.03 7.83Q47.67 7.73 47.28 7.86Q46.89 7.99 46.57 8.36Q46.26 8.72 46.20 9.31L46.20 9.31Q46.17 9.65 46.17 9.98Q46.17 10.30 46.17 10.58L46.17 10.58L46.17 13.52L44.35 13.52ZM55.96 8.96L55.96 8.96Q55.85 8.57 55.53 8.30Q55.22 8.04 54.80 7.90Q54.38 7.77 53.90 7.78Q53.42 7.78 53.00 7.97Q52.57 8.15 52.25 8.51Q51.93 8.86 51.80 9.41L51.80 9.41Q51.70 9.86 51.77 10.32Q51.84 10.78 52.09 11.15Q52.35 11.52 52.77 11.76Q53.20 12.00 53.80 12.00L53.80 12.00Q54.94 12.00 55.57 11.17L55.57 11.17L56.90 12.14Q55.83 13.64 53.83 13.64L53.83 13.64Q52.78 13.64 52.02 13.24Q51.25 12.84 50.78 12.20Q50.30 11.56 50.13 10.77Q49.97 9.98 50.10 9.21Q50.23 8.43 50.68 7.74Q51.13 7.04 51.90 6.61L51.90 6.61Q52.47 6.29 53.12 6.17Q53.77 6.05 54.43 6.15L54.43 6.15Q55.30 6.27 55.78 6.66Q56.27 7.06 56.42 7.51Q56.57 7.97 56.44 8.38Q56.31 8.79 55.96 8.96Z"></path></g><defs data-v-423bf9ae=""><linearGradient data-v-423bf9ae="" gradientTransform="rotate(25)" id="956f30a8-4cc5-46e0-bea9-e25bcc91fdbf" x1="0%" y1="0%" x2="100%" y2="0%"><stop data-v-423bf9ae="" offset="0%" style="stop-color: rgb(0, 10, 104); stop-opacity: 1;"></stop><stop data-v-423bf9ae="" offset="100%" style="stop-color: rgb(0, 196, 238); stop-opacity: 1;"></stop></linearGradient></defs><g data-v-423bf9ae="" id="7f9de577-a642-4581-8bd6-df49208feb9e" transform="matrix(2.8125,0,0,2.8125,0,0)" stroke="none" fill="url(#956f30a8-4cc5-46e0-bea9-e25bcc91fdbf)"><path d="M11.579 32H32L21.789 14.314z"></path><circle cx="8.683" cy="8.683" r="8.683"></circle></g><!----></svg>
