<?xml version="1.0" encoding="utf-8"?>
<svg viewBox="98.518 221.316 315.237 139.752" xmlns="http://www.w3.org/2000/svg" xmlns:bx="https://boxy-svg.com">
  <defs>
    <linearGradient data-v-fde0c5aa="" gradientTransform="rotate(25)" id="62ef73ef-c701-4097-82da-7765bca3409f" x1="0%" y1="0%" x2="100%" y2="0%">
      <stop data-v-fde0c5aa="" offset="0" stop-color="#0015D6" stop-opacity="1"/>
      <stop data-v-fde0c5aa="" offset="1" stop-color="#0989FB" stop-opacity="1"/>
    </linearGradient>
    <bx:guide x="315.74397449174995" y="299.7450047287872" angle="0"/>
    <bx:guide x="358.953" y="291.132" angle="0"/>
  </defs>
  <rect data-v-fde0c5aa="" fill="transparent" x="100" y="139.83" width="300" height="300" class="logo-background-square"/>
  <g data-v-fde0c5aa="" id="a4c80bb4-bb4c-4456-8e77-b53aaf660e2a" fill="#000000" transform="matrix(3.473838, 0, 0, 3.473838, 200.620296, 259.590632)">
    <path d="M7.10 8.82C7.94 8.46 8.37 7.72 8.37 6.89C8.37 5.35 6.96 4.36 5.39 4.36L1.37 4.36L1.37 13.32C2.23 13.51 3.86 13.70 5.06 13.70C7.27 13.70 8.80 12.47 8.80 10.94C8.80 9.61 7.92 9.05 7.10 8.82ZM3.27 6.07L4.99 6.07C5.87 6.07 6.49 6.45 6.49 7.18C6.49 7.85 5.87 8.26 4.99 8.26L3.27 8.26ZM4.95 11.98C4.55 11.98 3.79 11.94 3.27 11.81L3.27 9.67L4.95 9.67C5.96 9.67 6.82 9.97 6.82 10.73C6.82 11.51 6.00 11.98 4.95 11.98ZM12.33 13.52L12.33 3.68L10.60 3.68L10.60 13.52ZM18.28 6.44C17.35 6.44 16.61 7.04 16.19 7.60L16.19 6.62L14.45 6.62L14.45 13.52L16.19 13.52L16.19 9.15C16.58 8.60 17.13 8.13 17.75 8.13C18.53 8.13 19.00 8.59 19.00 9.52L19.02 13.52L20.75 13.52L20.75 9.28C20.75 7.40 19.69 6.44 18.28 6.44ZM25.39 10.73L27.49 13.52L29.75 13.52L26.51 9.60L29.48 6.62L27.30 6.62L24.49 9.69L24.49 3.68L22.75 3.68L22.75 13.52L24.49 13.52L24.49 11.63ZM33.62 6.44C31.61 6.44 29.93 8.04 29.93 10.09C29.93 12.13 31.61 13.73 33.62 13.73C35.63 13.73 37.32 12.13 37.32 10.09C37.32 8.04 35.63 6.44 33.62 6.44ZM33.62 8.12C34.60 8.12 35.48 8.83 35.48 10.09C35.48 11.35 34.60 12.04 33.62 12.04C32.63 12.04 31.77 11.35 31.77 10.09C31.77 8.83 32.63 8.12 33.62 8.12ZM42.18 6.44C40.17 6.44 38.49 8.04 38.49 10.09C38.49 12.13 40.17 13.73 42.18 13.73C44.19 13.73 45.88 12.13 45.88 10.09C45.88 8.04 44.19 6.44 42.18 6.44ZM42.18 8.12C43.16 8.12 44.04 8.83 44.04 10.09C44.04 11.35 43.16 12.04 42.18 12.04C41.19 12.04 40.33 11.35 40.33 10.09C40.33 8.83 41.19 8.12 42.18 8.12Z"/>
  </g>
  <g data-v-fde0c5aa="" id="6b484d92-be56-4ec3-9277-ec6cc8c6ed19" stroke="none" fill="url(#62ef73ef-c701-4097-82da-7765bca3409f)" transform="matrix(1.091229, 0, 0, 1.091229, 139.999997, 263.640894)">
    <path d="M47.732 27.045H37.604a.256.256 0 00-.249.196c-1.172 4.978-5.143 8.95-10.117 10.121a.256.256 0 00-.196.249V47.74a.256.256 0 00.256.255l.033-.002c10.729-1.432 19.223-9.927 20.655-20.658a.26.26 0 00-.061-.203.259.259 0 00-.193-.087z"/>
    <path d="M24.112 10.484c6.342 0 11.787 4.323 13.242 10.515.027.114.13.195.249.195h10.129c.005.002.009 0 .013 0a.255.255 0 00.23-.366C46.348 8.952 36.104.005 24.112.005 10.817.005 0 10.822 0 24.12c0 12.018 8.982 22.279 20.895 23.873l.034.002a.252.252 0 00.255-.255V37.611a.255.255 0 00-.196-.249c-6.19-1.456-10.514-6.902-10.514-13.242 0-7.519 6.118-13.636 13.638-13.636z"/>
  </g>
</svg>
