<svg xmlns="http://www.w3.org/2000/svg" width="100" height="100" viewBox="0 0 100 100">
  <defs>
    <linearGradient gradientTransform="rotate(25)" id="98d1" x1="0%" y1="0%" x2="100%" y2="0%">
      <stop offset="0%" stop-color="#E90DDA" stop-opacity="1"></stop>
      <stop offset="100%" stop-color="#15CFF1" stop-opacity="1"></stop>
    </linearGradient>
  </defs>
  <g stroke="none" fill="url(#98d1)" transform="">
    <path style="block-progression:tb;text-indent:0;text-transform:none;margin: auto;" d="M29.125 14.875c-2.477 0-4.482.141-5.969.437-1.486.298-2.741.808-3.781 1.5-1.362.868-2.318 2.076-2.875 3.626-.557 1.548-.844 4.208-.844 8V37.5c0 3.79-.669 6.445-2.031 7.969-1.362 1.523-3.712 2.281-7.031 2.281-.174 0-.441-.006-.813-.031a13.257 13.257 0 00-.875-.031v4.718c.198 0 .504-.006.875-.031.372-.025.64-.061.813-.063 3.319.002 5.669.771 7.031 2.282s2.031 4.141 2.031 7.906v9.062c0 3.692.287 6.353.844 7.938s1.513 2.796 2.875 3.688c1.04.692 2.315 1.202 3.813 1.5 1.498.296 3.484.437 5.937.437h1.281V80.5H29c-3.122 0-5.266-.598-6.344-1.75-1.077-1.152-1.625-3.559-1.625-7.25v-9c0-4.112-.515-7.028-1.593-8.75s-3-2.944-5.75-3.688c2.75-.766 4.672-2.028 5.75-3.75 1.078-1.72 1.593-4.636 1.593-8.75v-8.968c0-3.716.56-6.18 1.625-7.344s3.097-1.75 6.094-1.75c.173 0 .472.038.844.062.371.026.614.032.812.032v-4.719h-1.281zm40.375 0V19.5H71c3.096 0 5.16.605 6.25 1.781 1.09 1.177 1.625 3.622 1.625 7.313v8.968c0 4.114.547 7.03 1.625 8.75 1.078 1.722 3 2.984 5.75 3.75-2.75.744-4.672 1.966-5.75 3.688s-1.625 4.638-1.625 8.75v8.906c0 3.741-.547 6.23-1.625 7.406-1.078 1.178-3.09 1.75-6.062 1.75-.174 0-.441-.006-.813-.031s-.677-.031-.875-.031v4.625h1.531c2.527 0 4.52-.121 5.969-.406s2.659-.761 3.625-1.407c1.338-.89 2.267-2.114 2.813-3.687.544-1.573.812-4.271.812-8.063v-9c0-3.764.719-6.401 2.094-7.937 1.374-1.536 3.718-2.311 7.062-2.313.174.002.472.038.844.063.371.025.645.031.844.031v-4.718c-.199 0-.473.006-.844.031-.372.025-.67.031-.844.031-3.344 0-5.688-.778-7.062-2.312-1.375-1.536-2.094-4.173-2.094-7.938v-9.062c0-3.766-.268-6.44-.812-8-.546-1.562-1.475-2.758-2.813-3.626-1.04-.668-2.333-1.159-3.844-1.468-1.511-.31-3.46-.469-5.937-.469H69.5zM39.5 23c-2.471 0-4.5 2.029-4.5 4.5s2.029 4.5 4.5 4.5 4.5-2.029 4.5-4.5-2.029-4.5-4.5-4.5zm0 9h-1.188v.594h2.376V32H39.5zm21-9c-2.471 0-4.5 2.029-4.5 4.5 0 2.022 1.371 3.752 3.219 4.312-.269 1.509-1.176 2.461-2.625 3.344-1.754 1.069-4.313 1.844-6.938 2.594s-5.316 1.481-7.5 2.812a9.45 9.45 0 00-1.468 1.126v-.094h-2.376v.594h1.876a8.544 8.544 0 00-.532.624h-1.344v.594h.969a6.703 6.703 0 00-.312.594h-.657v.594h.407a6.63 6.63 0 00-.188.594h-.219v.468C36.419 46.187 35 47.945 35 50s1.419 3.813 3.312 4.344v.468h2.376v-.468C42.581 53.813 44 52.055 44 50c0-2.002-1.337-3.703-3.156-4.281.325-1.349 1.205-2.267 2.562-3.094 1.754-1.069 4.313-1.813 6.938-2.563s5.316-1.512 7.5-2.843a8.88 8.88 0 001.968-1.625h1.876V35h-1.344c.14-.19.253-.389.375-.594h.969v-.594h-.657c.092-.194.176-.419.25-.624h.407v-.594h-.219c.05-.196.091-.389.125-.594h.094v-.156C63.581 31.313 65 29.555 65 27.5c0-2.471-2.029-4.5-4.5-4.5zm-21 2.406c1.174 0 2.094.92 2.094 2.094s-.92 2.094-2.094 2.094-2.094-.92-2.094-2.094.92-2.094 2.094-2.094zm21 0c1.174 0 2.094.92 2.094 2.094s-.92 2.094-2.094 2.094-2.094-.92-2.094-2.094.92-2.094 2.094-2.094zm-22.188 7.782v.624h2.376v-.624h-2.376zm0 1.218V35h2.376v-.594h-2.376zm0 1.188v.594h2.376v-.594h-2.376zm21 .594v.624h2.376v-.624h-2.376zm-21 .624v.594h2.376v-.594h-2.376zm21 .594V38h2.376v-.594h-2.376zm-21 .594v.594h2.376V38h-2.376zm21 .594v.594h2.376v-.594h-2.376zm-21 .594v.624h2.376v-.624h-2.376zm21 .624v.594h2.376v-.594h-2.376zm-21 .594V41h2.376v-.594h-2.376zm21 .594v.594h2.376V41h-2.376zm0 1.188v.624h2.376v-.624h-2.376zm0 1.218V44h2.376v-.594h-2.376zm0 1.188v.594h2.376v-.594h-2.376zm1.188.594c-2.471 0-4.5 2.028-4.5 4.5 0 2.471 2.029 4.5 4.5 4.5.09 0 .161.005.25 0l.844.156.031-.219v-.063C63.556 53.557 65 51.769 65 49.688c0-2.472-2.029-4.5-4.5-4.5zm0 2.406c1.174 0 2.094.919 2.094 2.094 0 1.174-.92 2.124-2.094 2.124s-2.094-.95-2.094-2.124c0-1.175.92-2.094 2.094-2.094zm-21 .312c1.174 0 2.094.92 2.094 2.094s-.92 2.094-2.094 2.094-2.094-.92-2.094-2.094.92-2.094 2.094-2.094zm19.625 6.469v.063l-.031.031-.063.219-.031.062-.031.062 2.219.938.062-.156.031-.032V55.5l.125-.375v-.031l.032-.063V55l-1.563-.375-.75-.25zm-.375.844l-.156.343-.032.032v.031l.094.063 1.813 1.374.093-.124.063-.063.031-.094.188-.375-2.094-1.187zm-20.438.187V56h2.376v-.594h-2.376zM58.281 56l-.093.094-.032.031-.281.281 1.719 1.688.375-.438.062-.031.063-.063v-.031l-1.125-.843-.688-.688zm-19.969.594v.594h2.376v-.594h-2.376zm19.219.125l-.375.281 1.313 2 .125-.062.062-.063.032-.031.343-.282-1.5-1.843zm-.906.625l-.094.062-.312.188 1.156 2.094.437-.25h.032l.062-.032.063-.062-1.344-2zm-18.313.468v.594h2.376v-.594h-2.376zm17.438.032l-.562.25 1.031 2.156.562-.25-1.031-2.156zm-1.031.468l-.375.157h-.063l-.093.031.843 2.25.157-.031.031-.031.406-.157-.906-2.219zm-1.094.407l-.125.062h-.062l-.313.125.719 2.282.375-.126.031-.031h.031l.188-.062-.844-2.25zM38.312 59v.594h2.376V59h-2.376zm14.219.062l-.562.188.719 2.312.562-.187-.719-2.313zm-1.093.376l-.594.156.687 2.312.563-.156-.656-2.312zm-1.188.343l-.562.157.656 2.312.594-.188-.688-2.281zm-1.125.313l-.594.187.688 2.313.562-.188-.656-2.312zm-10.813.094v.624h2.376v-.624h-2.376zm9.657.25l-.25.093h-.031l-.344.094.75 2.281.281-.094h.031l.219-.062-.656-2.312zm-1.188.374l-.562.188.75 2.281.562-.187-.75-2.282zm-1.187.376l-.563.218.844 2.25.563-.187-.844-2.281zm-7.282.218V62h2.376v-.594h-2.376zm6.126.25l-.532.219h-.062v.031l.75 1.625.218.563.063-.032.469-.187-.906-2.219zm-1.157.5l-.25.125-.031.031h-.031l-.281.188 1.156 2.062.218-.093.063-.063.187-.094-1.031-2.156zm-4.969.438v.594h2.376v-.594h-2.376zm3.782.218l-.5.344 1.312 2 .5-.344-1.312-2zm-1.063.782l-.343.25v-.032h-2.376v.594h2.376v-.094l1.5 1.438v-.031l.093-.094.25-.187-1.5-1.844zm-1 .906v.031l-.062.063-.063.062-.25.344h-1.344v.594h1.938l1.25.937.344-.437-.782-.594-.374-.344V65h-.126l-.531-.5zm-.875 1.25l-.187.344-.031.062-.032.032h-.594v.624h1.5l1.25.5v-.031l.063-.093v-.032l.125-.25-.562-.312v-.406h-.719l-.813-.438zm-.844 1.656v.782C36.414 68.715 35 70.442 35 72.5c0 2.471 2.029 4.5 4.5 4.5s4.5-2.029 4.5-4.5c0-2.02-1.373-3.719-3.219-4.281-.051 0-.062-.031-.093-.031v-.782h-2.376zm1.188 3c1.174 0 2.094.92 2.094 2.094s-.92 2.094-2.094 2.094-2.094-.92-2.094-2.094.92-2.094 2.094-2.094z" color="#000"></path>
  </g>
</svg>
